<?xml version="1.0" encoding="UTF-8" standalone="no"?>
<!-- Created with Inkscape (http://www.inkscape.org/) -->
<svg
   xmlns:dc="http://purl.org/dc/elements/1.1/"
   xmlns:cc="http://web.resource.org/cc/"
   xmlns:rdf="http://www.w3.org/1999/02/22-rdf-syntax-ns#"
   xmlns:svg="http://www.w3.org/2000/svg"
   xmlns="http://www.w3.org/2000/svg"
   xmlns:xlink="http://www.w3.org/1999/xlink"
   xmlns:sodipodi="http://sodipodi.sourceforge.net/DTD/sodipodi-0.dtd"
   xmlns:inkscape="http://www.inkscape.org/namespaces/inkscape"
   height="900"
   width="900"
   id="svg2"
   sodipodi:version="0.32"
   inkscape:version="0.45.1"
   version="1.0"
   sodipodi:docbase="/home/warx/public_html"
   sodipodi:docname="Wikimedia_Community_Logo-Voting.svg"
   inkscape:output_extension="org.inkscape.output.svg.inkscape">
  <defs
     id="defs4">
    <radialGradient
       gradientTransform="matrix(6.745514,0,0,6.205428,-325.655,107.1358)"
       gradientUnits="userSpaceOnUse"
       xlink:href="#linearGradient7346"
       id="radialGradient7412"
       fy="35.695538"
       fx="114.94749"
       r="33.299839"
       cy="35.695538"
       cx="114.94749" />
    <radialGradient
       gradientTransform="matrix(6.745514,0,0,24.58868,-325.655,-1142.212)"
       gradientUnits="userSpaceOnUse"
       xlink:href="#linearGradient7346"
       id="radialGradient7410"
       fy="59.664066"
       fx="114.91468"
       r="22.79266"
       cy="59.664066"
       cx="114.91468" />
    <radialGradient
       gradientTransform="matrix(6.745514,0,0,13.81133,-325.655,-493.7791)"
       gradientUnits="userSpaceOnUse"
       xlink:href="#linearGradient7346"
       id="radialGradient7408"
       fy="59.165096"
       fx="115.92297"
       r="33.211487"
       cy="59.165096"
       cx="115.92297" />
    <radialGradient
       gradientTransform="matrix(6.745514,0,0,13.81133,-325.655,-493.7791)"
       gradientUnits="userSpaceOnUse"
       xlink:href="#linearGradient7346"
       id="radialGradient7393"
       fy="59.165096"
       fx="115.92297"
       r="33.211487"
       cy="59.165096"
       cx="115.92297" />
    <radialGradient
       gradientTransform="matrix(6.745514,0,0,24.58868,-325.655,-1142.212)"
       gradientUnits="userSpaceOnUse"
       xlink:href="#linearGradient7346"
       id="radialGradient7390"
       fy="59.664066"
       fx="114.91468"
       r="22.79266"
       cy="59.664066"
       cx="114.91468" />
    <radialGradient
       gradientTransform="matrix(6.745514,0,0,6.205428,-325.655,107.1358)"
       gradientUnits="userSpaceOnUse"
       xlink:href="#linearGradient7346"
       id="radialGradient7387"
       fy="35.695538"
       fx="114.94749"
       r="33.299839"
       cy="35.695538"
       cx="114.94749" />
    <radialGradient
       gradientTransform="matrix(1,0,0,0.919934,0,0.191812)"
       gradientUnits="userSpaceOnUse"
       xlink:href="#linearGradient7346"
       id="radialGradient7383"
       fy="35.695538"
       fx="114.94749"
       r="33.299839"
       cy="35.695538"
       cx="114.94749" />
    <radialGradient
       gradientTransform="matrix(1,0,0,3.64519,0,-185.0199)"
       gradientUnits="userSpaceOnUse"
       xlink:href="#linearGradient7346"
       id="radialGradient7381"
       fy="59.664066"
       fx="114.91468"
       r="22.79266"
       cy="59.664066"
       cx="114.91468" />
    <radialGradient
       gradientTransform="matrix(1,0,0,2.047484,0,-88.89182)"
       gradientUnits="userSpaceOnUse"
       xlink:href="#linearGradient7346"
       id="radialGradient7379"
       fy="59.165096"
       fx="115.92297"
       r="33.211487"
       cy="59.165096"
       cx="115.92297" />
    <radialGradient
       gradientTransform="matrix(1,0,0,0.919934,0,0.191812)"
       gradientUnits="userSpaceOnUse"
       xlink:href="#linearGradient7346"
       id="radialGradient7368"
       fy="35.695538"
       fx="114.94749"
       r="33.299839"
       cy="35.695538"
       cx="114.94749" />
    <radialGradient
       gradientTransform="matrix(1,0,0,3.64519,0,-185.0199)"
       gradientUnits="userSpaceOnUse"
       xlink:href="#linearGradient7346"
       id="radialGradient7360"
       fy="59.664066"
       fx="114.91468"
       r="22.79266"
       cy="59.664066"
       cx="114.91468" />
    <radialGradient
       gradientTransform="matrix(1,0,0,2.047484,0,-88.89182)"
       gradientUnits="userSpaceOnUse"
       xlink:href="#linearGradient7346"
       id="radialGradient7352"
       fy="59.165096"
       fx="115.92297"
       r="33.211487"
       cy="59.165096"
       cx="115.92297" />
    <linearGradient
       id="linearGradient7346">
      <stop
         id="stop7348"
         offset="0"
         style="stop-color:#f90000;stop-opacity:1" />
      <stop
         id="stop7350"
         offset="1"
         style="stop-color:#c50000;stop-opacity:1" />
    </linearGradient>
  </defs>
  <sodipodi:namedview
     id="base"
     pagecolor="#ffffff"
     bordercolor="#666666"
     borderopacity="1.0"
     inkscape:pageopacity="0.0"
     inkscape:pageshadow="2"
     inkscape:cx="372.04724"
     inkscape:cy="617.75878"
     inkscape:zoom="0.6841751"
     inkscape:document-units="px"
     inkscape:current-layer="layer1"
     showguides="true"
     inkscape:guide-bbox="true"
     width="900px"
     height="900px"
     inkscape:window-width="1214"
     inkscape:window-height="932"
     inkscape:window-x="0"
     inkscape:window-y="0" />
  <metadata
     id="metadata7">
    <rdf:RDF>
      <cc:Work
         rdf:about="">
        <dc:format>image/svg+xml</dc:format>
        <dc:type
           rdf:resource="http://purl.org/dc/dcmitype/StillImage" />
      </cc:Work>
    </rdf:RDF>
  </metadata>
  <g
     inkscape:groupmode="layer"
     inkscape:label="Warstwa 1"
     id="layer1">
    <g
       id="g5442"
       transform="translate(15.714329,6.209242)">
      <path
         id="path4005"
         style="fill:#990000;fill-opacity:1;stroke:none;stroke-width:10;stroke-linecap:round;stroke-linejoin:round;stroke-miterlimit:4;stroke-dasharray:none;stroke-opacity:1"
         d="M 434.28567,-4.834244 C 280.72741,-4.834244 145.06551,72.212992 63.848171,189.72826 L 150.84817,239.97826 C 214.47037,152.27084 317.72495,95.165756 434.28567,95.165756 C 550.84639,95.16576 654.10097,152.27084 717.72317,239.97826 L 804.72317,189.72826 C 723.50583,72.212992 587.84393,-4.834244 434.28567,-4.834244 z " />
      <path
         id="path4003"
         style="fill:#006699;fill-opacity:1;stroke:none;stroke-width:10;stroke-linecap:round;stroke-linejoin:round;stroke-miterlimit:4;stroke-dasharray:none;stroke-opacity:1"
         d="M 16.473171,277.91576 C -4.265937,329.6324 -15.714329,386.06584 -15.714329,445.16576 C -15.714329,676.6694 159.38317,867.52288 384.28567,892.41576 L 384.28567,791.54076 C 214.75641,767.24386 84.285671,621.38114 84.285671,445.16576 C 84.285673,404.2742 91.316277,365.02948 104.22317,328.54076 L 16.473171,277.91576 z " />
      <path
         id="path3918"
         style="fill:#006699;fill-opacity:1;stroke:none;stroke-width:10;stroke-linecap:round;stroke-linejoin:round;stroke-miterlimit:4;stroke-dasharray:none;stroke-opacity:1"
         d="M 852.09817,277.91576 L 764.34817,328.54076 C 777.25507,365.02948 784.28567,404.2742 784.28567,445.16576 C 784.28567,621.38112 653.81495,767.24386 484.28567,791.54076 L 484.28567,892.41576 C 709.18815,867.52288 884.28565,676.6694 884.28567,445.16576 C 884.28567,386.06584 872.83727,329.6324 852.09817,277.91576 z " />
      <g
         transform="matrix(0.9174077,-0.3979486,0.3979486,0.9174077,-141.12711,209.51724)"
         id="g5420">
        <path
           style="fill:#339966;fill-opacity:1;stroke:none;stroke-width:1;stroke-linecap:round;stroke-linejoin:round;stroke-miterlimit:4;stroke-dasharray:none;stroke-opacity:1"
           d="M 725.8125,374.28125 C 725.79186,374.29239 725.77064,374.30136 725.75,374.3125 C 704.34577,385.86154 680.71301,396.13095 655.25,404.90625 C 656.9195,418.0852 657.78125,431.50212 657.78125,445.125 C 657.78124,454.26026 657.41463,463.30702 656.65625,472.25 C 683.48863,461.20518 709.32896,448.29948 734.03125,433.625 C 733.26222,413.24865 730.45428,393.41553 725.8125,374.28125 z M 142.6875,374.34375 C 137.67067,395.06172 134.80587,416.60044 134.34375,438.75 C 159.26037,452.97182 185.28562,465.49203 212.28125,476.0625 C 211.29303,465.87329 210.78125,455.56832 210.78125,445.125 C 210.78125,431.52066 211.64626,418.12969 213.3125,404.96875 C 187.79932,396.18768 164.12779,385.9075 142.6875,374.34375 z M 635.8125,411.1875 C 578.79005,428.53736 513.65751,438.69595 444.28125,439.59375 L 444.28125,516.75 C 511.44097,515.14426 575.81398,502.47833 635.71875,480.4375 C 637.08585,468.85131 637.78125,457.07614 637.78125,445.125 C 637.78125,433.6429 637.07592,422.33462 635.8125,411.1875 z M 232.625,411.21875 C 231.36736,422.35642 230.71875,433.65552 230.71875,445.125 C 230.71876,458.2368 231.57774,471.14359 233.21875,483.8125 C 293.14117,504.70955 357.3862,516.33798 424.28125,516.9375 L 424.28125,439.59375 C 354.87612,438.70968 289.68055,428.56753 232.625,411.21875 z M 734.03125,456.5625 C 708.4039,471.14367 681.65159,483.96498 653.90625,494.8125 C 645.32961,549.29363 622.84425,599.21678 590.21875,641 C 621.56451,634.08675 652.18405,625.23866 681.90625,614.5 C 712.94534,569.22873 731.83683,515.02588 734.03125,456.5625 z M 134.71875,461.8125 C 137.91934,520.1064 157.80935,573.97744 189.65625,618.75 C 219.04558,628.79527 249.23752,637.04538 280.15625,643.375 C 247.2886,602.07573 224.45611,552.60484 215.28125,498.5625 C 187.42385,488.21683 160.51571,475.90173 134.71875,461.8125 z M 632.21875,502.875 C 573.12296,523.44016 509.97777,535.28955 444.28125,536.8125 L 444.28125,658.25 C 483.3729,657.49866 521.70437,653.8255 559.09375,647.25 C 559.11374,647.22815 559.13624,647.20932 559.15625,647.1875 C 595.61729,607.35776 621.44846,557.7781 632.21875,502.875 z M 236.96875,506.1875 C 248.28377,560.59802 274.44081,609.65611 311.03125,649 C 347.94776,654.93786 385.75973,658.09738 424.28125,658.375 L 424.28125,536.9375 C 358.93608,536.36943 295.98617,525.61777 236.96875,506.1875 z M 659.65625,643.0625 C 630.13263,652.40678 599.85763,660.02918 568.90625,665.75 C 535.85737,700.25471 495.1045,727.46253 449.46875,744.75 C 533.13124,740.57358 607.78048,702.08235 659.65625,643.0625 z M 212.21875,646.8125 C 263.95951,703.7361 337.29346,740.69408 419.21875,744.75 C 374.37369,727.78246 334.27927,701.26122 301.53125,667.625 C 271.10819,662.46177 241.30633,655.47137 212.21875,646.8125 z M 534.34375,671.3125 C 504.82434,675.37204 474.7729,677.74078 444.28125,678.3125 L 444.28125,725.5625 C 477.55889,712.72774 507.96197,694.25428 534.34375,671.3125 z M 335.65625,672.6875 C 361.69794,695.03569 391.62015,713.03623 424.28125,725.625 L 424.28125,678.375 C 394.29545,678.16415 364.72896,676.27382 335.65625,672.6875 z "
           id="path2862"
           sodipodi:nodetypes="cscsccccccsccccccsccsccccccccccccccccccscccccccccccccccccccccc" />
        <path
           style="opacity:1;fill:#339966;fill-opacity:1;stroke:none;stroke-width:28;stroke-miterlimit:4;stroke-dasharray:none;stroke-opacity:1"
           d="M 451,289.34375 C 449.1515,292.08347 446.70074,294.5077 443.46875,296.25 C 439.21218,298.54463 434.03725,298.86193 429.90625,297.84375 C 425.77525,296.82557 422.42953,294.85758 419.3125,292.59375 C 417.9488,291.60332 416.61664,290.52841 415.3125,289.40625 C 311.98299,292.00394 218.91519,315.78564 151.21875,352.3125 C 150.26459,352.82733 149.31812,353.32497 148.375,353.84375 C 148.35795,353.89708 148.32952,353.94666 148.3125,354 C 148.33252,354.06276 148.35494,354.12476 148.375,354.1875 C 149.31812,354.70628 150.26459,355.20392 151.21875,355.71875 C 223.0137,394.45703 323.34287,418.875 434.1875,418.875 C 545.03212,418.875 645.36132,394.45703 717.15625,355.71875 C 718.10573,355.20644 719.03133,354.70417 719.96875,354.1875 C 719.98881,354.12476 720.01123,354.06276 720.03125,354 C 720.01423,353.94666 719.9858,353.89708 719.96875,353.84375 C 719.03133,353.32708 718.10573,352.82481 717.15625,352.3125 C 649.00966,315.54275 555.15337,291.67454 451,289.34375 z M 335.6875,344 L 532.65625,344 C 536.26261,343.949 539.61944,345.85376 541.4375,348.96875 C 543.25556,352.08372 543.25557,355.91629 541.4375,359.03125 C 539.61943,362.14623 536.26261,364.051 532.65625,364 L 335.6875,364 C 332.08114,364.051 328.72431,362.14624 326.90625,359.03125 C 325.08819,355.91628 325.08818,352.08371 326.90625,348.96875 C 328.72432,345.85377 332.08114,343.949 335.6875,344 z "
           id="path5327" />
        <path
           style="opacity:1;fill:#006699;fill-opacity:1;stroke:none;stroke-width:20.00000381;stroke-linecap:round;stroke-miterlimit:4;stroke-dasharray:none;stroke-opacity:1"
           d="M 451.40625,157.53125 C 448.18268,157.56227 444.90325,158.38363 441.875,160.0625 L 350.625,210.65625 C 340.9346,216.02865 337.47134,228.15335 342.84375,237.84375 L 393.4375,329.09375 C 398.8099,338.78415 410.93461,342.2474 420.625,336.875 L 511.875,286.28125 C 521.5654,280.90885 525.02865,268.78416 519.65625,259.09375 L 469.0625,167.84375 C 465.36898,161.1816 458.49811,157.463 451.40625,157.53125 z M 462.5625,200.34375 C 466.50073,200.20139 470.16548,202.37076 471.90625,205.90625 C 473.64701,209.44174 473.13919,213.68415 470.625,216.71875 C 461.19119,228.41152 459.14089,243.01103 457.96875,257.3125 C 457.38268,264.46323 457.07014,271.36593 455.59375,278.03125 C 454.11736,284.69657 450.85616,292.26761 443.46875,296.25 C 439.21218,298.54463 434.03725,298.86193 429.90625,297.84375 C 425.77525,296.82557 422.42953,294.85758 419.3125,292.59375 C 413.07844,288.06609 407.56477,282.01551 401.875,275.78125 C 390.49545,263.31272 377.8035,250.72597 370.78125,248.84375 C 367.21426,248.02799 364.36763,245.33437 363.375,241.8125 C 362.38238,238.29063 363.41525,234.49591 366.03125,231.9375 C 368.64725,229.37909 372.43859,228.46048 375.9375,229.53125 C 393.6022,234.26604 405.54493,250.13787 416.65625,262.3125 C 422.21191,268.39982 427.38434,273.73488 431.0625,276.40625 C 432.71669,277.60765 433.8123,278.04075 434.34375,278.21875 C 434.78023,277.81626 435.37065,276.98325 436.09375,273.71875 C 437.00144,269.62088 437.41845,263.16432 438.03125,255.6875 C 439.25684,240.73387 441.46938,221.0043 455.0625,204.15625 C 456.88035,201.84451 459.62355,200.45005 462.5625,200.34375 z "
           id="rect5354" />
        <path
           style="opacity:1;fill:#990000;fill-opacity:1;stroke:none;stroke-width:20.00000381;stroke-linecap:round;stroke-miterlimit:4;stroke-dasharray:none;stroke-opacity:1"
           d="M 345.79747,201.90394 C 331.41316,209.87866 326.13142,228.30335 334.10614,242.68767 L 384.68449,333.91775 C 392.65921,348.30207 411.0839,353.58381 425.46822,345.60909 L 516.6983,295.03074 C 531.08262,287.05601 536.36438,268.63132 528.38964,254.24701 L 477.81129,163.01692 C 469.83656,148.63261 451.41188,143.35086 437.02756,151.32559 L 345.79747,201.90394 z M 355.49494,219.39563 L 446.72503,168.81728 C 451.72152,166.0472 457.54954,167.71792 460.3196,172.71439 L 510.89795,263.94448 C 513.66802,268.94094 511.99731,274.76899 507.00084,277.53905 L 415.77075,328.1174 C 410.77428,330.88747 404.94624,329.21676 402.17618,324.22029 L 351.59783,232.9902 C 348.82776,227.99373 350.49847,222.16569 355.49494,219.39563 z "
           id="rect5410" />
      </g>
    </g>
  </g>
</svg>
